<svg version="1.2" xmlns="http://www.w3.org/2000/svg" viewBox="0 0 362 328" width="362" height="328">
	<title>section-bg-svg</title>
	<defs>
		<clipPath clipPathUnits="userSpaceOnUse" id="cp1">
			<path d="m0 0h361.09v327.98h-361.09z"/>
		</clipPath>
	</defs>
	<style>
		.s0 { fill: #0f61fd } 
	</style>
	<g id="Clip-Path: Group_27260" clip-path="url(#cp1)" style="fill-opacity: .1">
		<g id="Group_27260">
			<path id="Path_28192" fill-rule="evenodd" class="s0" d="m180.6 105.9c-13.9 0-26.3-8.3-31.6-21-5.3-12.8-2.4-27.5 7.4-37.3 9.8-9.7 24.5-12.7 37.2-7.4 12.8 5.3 21.1 17.8 21.1 31.6 0 4.5-0.9 8.9-2.6 13-1.7 4.2-4.2 7.9-7.4 11.1-3.2 3.2-6.9 5.7-11.1 7.4-4.1 1.7-8.6 2.6-13 2.6zm0-52c-7.3 0-13.8 4.4-16.6 11-2.7 6.7-1.2 14.4 3.9 19.5 5.1 5.1 12.8 6.7 19.5 3.9 6.7-2.8 11-9.3 11-16.5 0-2.4-0.4-4.7-1.3-6.9-0.9-2.1-2.2-4.1-3.9-5.8-1.7-1.6-3.6-2.9-5.8-3.8-2.2-0.9-4.5-1.4-6.8-1.4z"/>
			<path id="Path_28193" class="s0" d="m361.1 0v328h-150.8v-16.3h134.5v-295.4h-328.5v201.9h246.6c-1.7-17.7-9.2-34.5-21.2-47.7-12.1-13.2-28.1-22.1-45.6-25.5-17.6-3.3-35.8-0.9-51.8 6.9-16.1 7.9-29.2 20.7-37.4 36.6h-17.9c8.8-21.2 24.6-38.7 44.8-49.5 20.2-10.8 43.6-14.3 66.1-9.8 22.4 4.5 42.7 16.6 57.2 34.3 14.6 17.7 22.5 39.9 22.5 62.9v8.1h-279.6v-234.5z"/>
			<path id="Path_28194" class="s0" d="m180.6 328c-13.1 0-25.9-2.6-37.9-7.6-12.1-5-23-12.3-32.2-21.5-9.2-9.2-16.5-20.1-21.4-32.1-5-12-7.6-24.9-7.6-37.9h16.3c0 10.9 2.1 21.6 6.3 31.7 4.1 10 10.2 19.2 17.9 26.8 7.7 7.7 16.8 13.8 26.9 18 10 4.2 20.8 6.3 31.7 6.3z"/>
		</g>
	</g>
</svg>